PathFileType	4	(X/Y/Z)	s10c0301.trc
DataRate	CameraRate	NumFrames	NumMarkers	Units	OrigDataRate	OrigDataStartFrame	OrigNumFrames
200	200	5	50	mm	200	0	2000
Frame#	Time	racr			lacr			c7			jug			rlel			rdr			llel			ldr			s2			lic			ric			lasi			rasi			rpsi			lpsi			rgt			lgt			rth1			rth2			rth3			rth4			rlfc			rmfc			rsh1			rsh2			rsh3			rsh4			rlmal			rmmal			rcal			rtoe			rmt5			lth1			lth2			lth4			lth3			llfc			lmfc			llmal			lmmal			lcal			lmt5			lsh1			lsh2			lsh3			lsh4			ltoe			SBIKE			LBIKE			RBIKE			
		X1	Y1	Z1	X2	Y2	Z2	X3	Y3	Z3	X4	Y4	Z4	X5	Y5	Z5	X6	Y6	Z6	X7	Y7	Z7	X8	Y8	Z8	X9	Y9	Z9	X10	Y10	Z10	X11	Y11	Z11	X12	Y12	Z12	X13	Y13	Z13	X14	Y14	Z14	X15	Y15	Z15	X16	Y16	Z16	X17	Y17	Z17	X18	Y18	Z18	X19	Y19	Z19	X20	Y20	Z20	X21	Y21	Z21	X22	Y22	Z22	X23	Y23	Z23	X24	Y24	Z24	X25	Y25	Z25	X26	Y26	Z26	X27	Y27	Z27	X28	Y28	Z28	X29	Y29	Z29	X30	Y30	Z30	X31	Y31	Z31	X32	Y32	Z32	X33	Y33	Z33	X34	Y34	Z34	X35	Y35	Z35	X36	Y36	Z36	X37	Y37	Z37	X38	Y38	Z38	X39	Y39	Z39	X40	Y40	Z40	X41	Y41	Z41	X42	Y42	Z42	X43	Y43	Z43	X44	Y44	Z44	X45	Y45	Z45	X46	Y46	Z46	X47	Y47	Z47	X48	Y48	Z48	X49	Y49	Z49	X50	Y50	Z50	
0	0.0000	375.193770	1248.497397	-45.748846	374.105572	1250.329496	-389.963559	386.932835	1313.034671	-217.275310	393.310883	1172.338419	-215.668009	467.034760	1024.202594	18.966176	639.946069	880.035617	-40.342146	445.350520	1009.501683	-474.894134	632.951487	884.986856	-422.417755	-125.713312	1103.135291	-211.203196	39.656961	1108.934115	-363.525176	63.907144	1106.494390	-82.099996	60.412293	1017.911181	-342.944987	48.031558	1018.740926	-84.228157	-76.356425	1155.421643	-155.705915	-74.276757	1162.476430	-265.607614	-59.314943	1009.966900	-20.362143	-70.149091	984.548007	-407.566414	43.518677	914.092668	1.560380	130.763996	898.612433	-7.933125	195.425943	842.765819	-11.380565	144.764997	932.779376	-16.203009	299.238368	793.296032	-29.622927	295.461432	786.012932	-146.700663	254.610303	683.894544	-8.030551	262.793665	596.751388	-25.684262	227.053697	518.741328	-36.805896	292.926032	597.065619	-50.558895	205.625006	420.459379	-59.981794	227.901915	443.182282	-138.354589	155.655230	393.806590	-106.561207	398.088828	392.838090	-105.323173	319.246878	359.749332	-42.435374	6.884985	877.564653	-430.061098	83.619528	837.109704	-425.014630	108.009254	863.281251	-417.226541	130.360917	761.573182	-424.483895	205.324384	679.122869	-412.061578	216.555698	672.919724	-292.444551	-54.791151	410.489876	-378.426478	-41.398562	410.186383	-297.769102	-114.951267	412.063783	-330.579163	-0.175708	281.084438	-400.062326	109.304206	601.922455	-430.455284	78.861356	521.179686	-411.704942	7.544806	467.903080	-401.206060	103.288875	506.935176	-385.827471	86.694181	261.310841	-347.230868	-218.436981	834.494287	-214.417279	-104.107498	81.588641	-417.285895	-103.585940	81.246821	-18.017472	
1	0.0050	375.192186	1248.511764	-45.761265	374.095479	1250.317968	-389.941136	386.911649	1313.018395	-217.248783	393.282777	1172.360097	-215.644752	467.091040	1024.267240	18.989290	639.953695	880.015133	-40.334391	445.357169	1009.526258	-474.881500	632.938959	884.990662	-422.450570	-125.748787	1103.134591	-211.232512	39.648208	1108.896188	-363.552958	63.882747	1106.449645	-82.122044	60.385715	1017.874456	-342.958992	48.070313	1018.848445	-84.116962	-76.352767	1155.486206	-155.630343	-74.282102	1162.490234	-265.644172	-59.357313	1009.983223	-20.353418	-70.184569	984.540225	-407.576537	43.478050	914.169888	1.563944	130.746961	898.707296	-7.868638	195.439200	842.903732	-11.289650	144.726030	932.897769	-16.148234	299.264775	793.479958	-29.514384	295.496724	786.235236	-146.596425	254.572571	684.150471	-7.928610	262.773487	596.943644	-25.625957	227.009613	518.944840	-36.759291	292.902473	597.234606	-50.465387	205.593129	420.624020	-60.002308	227.895960	443.386740	-138.307948	155.538683	393.983232	-106.579141	398.067215	392.990306	-105.335065	319.191572	359.943962	-42.448872	6.813467	877.524527	-430.069586	83.530962	837.039498	-424.979972	107.936246	863.204347	-417.206789	130.253951	761.479341	-424.433727	205.208110	679.009635	-412.006317	216.399832	672.827693	-292.361642	-54.835613	410.302428	-378.429631	-41.440854	410.009919	-297.772574	-114.968814	411.828929	-330.596234	-0.149867	280.906979	-400.062235	109.203804	601.789335	-430.416375	78.769876	521.038060	-411.673097	7.536039	467.691838	-401.205885	103.220816	506.793978	-385.775140	86.724646	261.252797	-347.240721	-218.425505	834.473110	-214.416541	-104.089182	81.612917	-417.268717	-103.595268	81.252266	-18.018402	
2	0.0100	375.183376	1248.544687	-45.772919	374.120295	1250.288839	-389.926241	386.906846	1312.990107	-217.238267	393.264512	1172.361824	-215.638960	467.156095	1024.322212	19.002470	639.954379	880.028140	-40.372160	445.355365	1009.525615	-474.872032	632.934285	884.996495	-422.439050	-125.785501	1103.144567	-211.243531	39.638548	1108.861034	-363.592037	63.848044	1106.445166	-82.109699	60.355574	1017.822598	-342.951880	48.014759	1018.815446	-84.109818	-76.389406	1155.504004	-155.638043	-74.283980	1162.472947	-265.668831	-59.410299	1010.001420	-20.330769	-70.226491	984.528962	-407.587050	43.663437	914.552830	2.144541	130.725104	898.802761	-7.806757	195.450014	843.051550	-11.192970	144.687814	932.997011	-16.108844	299.258201	793.656814	-29.382743	295.550850	786.411259	-146.457634	254.549143	684.372401	-7.847101	262.702632	597.206868	-25.553149	226.983482	519.148912	-36.729076	292.876897	597.452406	-50.396969	205.540368	420.787506	-60.031071	227.855007	443.515243	-138.280133	155.561451	394.291956	-106.705968	398.050319	393.154158	-105.343864	319.179957	360.140387	-42.464391	6.748395	877.480325	-430.053630	83.458566	836.980271	-424.947408	107.880491	863.100937	-417.172082	130.165299	761.385960	-424.353129	205.088198	678.906272	-411.956336	216.268953	672.765549	-292.284943	-54.867544	410.098578	-378.407023	-41.431596	409.856984	-297.756622	-115.049808	411.672703	-330.528694	-0.104671	280.762122	-400.058844	109.104300	601.667157	-430.351627	78.722841	520.904974	-411.622721	7.502490	467.519564	-401.196850	103.157130	506.652081	-385.722188	86.791998	261.100086	-347.201148	-218.429529	834.476020	-214.423091	-104.110722	81.595134	-417.280887	-103.605240	81.267977	-18.015167	
3	0.0150	375.195059	1248.579485	-45.770472	374.124826	1250.268418	-389.897654	386.854938	1313.120761	-217.105832	393.531165	1172.298638	-214.666773	467.205887	1024.380246	19.019015	639.961268	880.010158	-40.404378	445.744154	1009.698329	-474.398597	632.927090	884.996890	-422.449678	-125.801551	1103.156964	-211.261374	40.870466	1108.207631	-365.613012	63.869989	1106.493633	-82.107975	60.346938	1017.787579	-342.966959	47.948662	1018.820948	-84.106992	-76.374719	1155.505329	-155.683770	-74.744897	1162.718338	-264.342997	-59.472640	1010.020214	-20.312493	-70.253405	984.515583	-407.591199	43.386892	914.287108	1.674146	131.091906	898.810009	-7.712044	195.562089	843.236509	-11.066016	144.634683	933.109302	-16.053425	298.968554	793.277525	-28.810074	295.620076	786.608249	-146.328454	254.543340	684.558597	-7.754538	262.768245	597.452221	-25.934553	227.011047	519.337041	-36.702924	292.867983	597.626566	-50.308478	206.763660	421.223855	-59.918675	227.787062	443.652800	-138.325073	155.579601	394.605550	-106.667704	398.049927	393.327280	-105.345302	319.165079	360.311348	-42.463720	6.703121	877.432184	-430.028664	83.394684	836.895250	-424.907307	107.792473	863.204450	-417.312725	130.603978	761.692192	-424.386854	204.976791	678.802151	-411.895041	216.055085	672.716645	-292.170268	-54.890758	409.898564	-378.387897	-41.491072	409.597081	-297.731696	-115.026199	411.417723	-330.580206	-0.074324	280.566343	-400.041729	109.032780	601.549090	-430.300225	77.961317	519.608153	-411.505395	7.484915	467.407753	-401.055306	103.136040	506.595081	-385.879680	86.779236	260.884635	-347.230128	-218.426513	834.472258	-214.415774	-104.106272	81.633799	-417.283602	-103.603325	81.263589	-18.015464	
4	0.0200	375.139270	1248.539709	-45.804108	374.114636	1250.098549	-389.561530	386.810843	1312.863909	-217.111134	393.509134	1172.277667	-214.658510	467.340185	1024.562574	19.163865	639.669665	879.327811	-40.056748	445.363448	1008.747550	-474.190494	632.983493	884.982347	-422.235733	-126.341590	1102.460645	-210.912002	40.770690	1108.011578	-365.336472	63.843228	1106.466153	-82.072840	60.552270	1016.992418	-343.304261	47.895193	1018.844250	-84.151498	-76.413748	1155.544730	-155.413754	-74.899666	1162.718910	-264.275910	-59.371298	1010.254417	-20.049638	-70.401646	983.921104	-407.550025	43.439368	914.434795	1.748129	131.216675	899.049276	-7.449724	195.635240	843.414587	-10.933601	144.677466	933.289521	-15.899688	298.955708	793.517945	-28.649749	295.717823	786.765739	-145.863484	254.672387	684.820486	-7.539464	262.872557	597.605932	-25.707180	227.102846	519.680920	-36.521160	292.795338	597.834907	-50.020261	206.613602	420.938071	-60.083897	227.908242	444.064866	-138.199927	155.469104	395.155481	-106.148061	398.025288	393.433700	-105.403426	319.212480	360.582039	-42.364112	6.580478	876.673953	-429.965931	83.092849	835.989982	-424.586402	107.375459	862.151672	-416.868339	130.475138	760.805968	-424.663985	204.624959	677.658916	-411.371850	216.170669	672.842268	-291.488241	-55.255954	409.005222	-378.358193	-41.897786	408.841334	-297.694702	-115.281476	410.577505	-330.572904	-0.317914	279.485796	-400.065472	109.108331	600.566676	-430.536663	77.952374	519.368549	-411.319318	7.352947	466.435257	-400.973215	102.964489	506.507525	-385.600603	86.484960	259.553080	-346.775472	-218.898089	833.702755	-214.266863	-104.277299	80.219667	-418.073983	-104.010320	80.451130	-18.273879	
